CowboyHenk.sfdir

StartChar: uni0041
Encoding: 65 65 2
Width: 249
Flags: W
LayerCount: 2
Fore
SplineSet
111 422 m 0
 111 420 109 415 103 404 c 0
 99 395 94 385 93 382 c 0
 92 378 90 375 90 374 c 0
 89 373 88 371 88 370 c 0
 87 369 86 366 86 365 c 0
 85 364 84 361 83 359 c 0
 82 357 80 353 78 350 c 0
 76 347 74 342 73 339 c 0
 73 336 71 333 70 332 c 0
 69 331 68 330 68 328 c 0
 68 325 66 320 62 311 c 0
 60 307 58 302 58 301 c 0
 58 300 57 296 55 293 c 1
 54 289 52 284 51 281 c 0
 50 278 48 275 48 274 c 0
 47 273 46 271 45 268 c 0
 44 266 42 262 41 260 c 0
 38 256 33 244 33 241 c 0
 33 240 30 235 27 228 c 1
 19 216 18 210 22 202 c 0
 22 200 23 197 24 195 c 0
 25 189 32 180 36 180 c 0
 40 180 47 185 49 190 c 0
 50 192 53 195 54 197 c 0
 56 199 57 201 57 203 c 0
 57 208 59 212 62 214 c 0
 63 215 64 218 65 220 c 0
 66 228 69 232 73 232 c 0
 77 233 91 232 100 230 c 0
 103 230 108 230 113 231 c 0
 120 232 123 232 126 231 c 0
 128 230 135 230 142 229 c 1
 162 229 168 228 171 227 c 0
 172 226 174 225 175 225 c 0
 177 225 178 223 180 215 c 0
 181 212 182 207 183 205 c 0
 184 203 185 198 186 195 c 1
 186 191 187 188 187 187 c 0
 188 186 188 184 188 183 c 2
 188 182 l 1
 189 182 189 181 189 179 c 0
 189 174 198 172 204 176 c 0
 207 178 209 178 218 178 c 0
 226 178 228 179 229 180 c 0
 231 183 231 187 229 190 c 0
 228 191 226 195 225 200 c 1
 223 204 221 210 219 213 c 0
 218 215 216 221 215 224 c 0
 214 228 213 232 212 233 c 0
 211 234 209 240 208 246 c 0
 206 252 205 257 204 258 c 2
 204 258 203 261 203 264 c 0
 202 267 201 271 200 274 c 0
 197 280 194 289 194 292 c 0
 194 293 193 296 192 299 c 1
 190 301 189 304 189 305 c 2
 189 305 189 307 188 309 c 0
 184 316 176 339 175 345 c 0
 174 347 173 349 173 350 c 0
 172 352 170 356 169 360 c 0
 168 363 166 368 165 369 c 0
 164 370 163 374 162 378 c 0
 161 381 159 385 158 387 c 0
 157 389 156 392 156 394 c 0
 156 396 156 397 155 398 c 2
 155 398 154 399 154 401 c 0
 154 403 153 407 151 411 c 0
 150 415 148 419 148 421 c 0
 148 422 148 423 148 425 c 0
 148 431 131 436 119 434 c 0
 114 433 109 428 111 422 c 0
135 348 m 0
 135 347 136 344 138 342 c 1
 139 339 142 332 144 325 c 0
 147 318 150 310 151 307 c 0
 154 301 159 289 160 281 c 1
 162 274 161 274 152 273 c 0
 149 273 142 273 138 273 c 0
 132 272 130 273 129 274 c 0
 128 275 125 275 111 274 c 1
 89 274 86 275 89 285 c 0
 91 291 97 308 98 311 c 0
 99 312 100 314 101 316 c 0
 101 318 102 321 103 322 c 0
 104 325 105 327 106 326 c 0
 108 325 110 328 111 333 c 0
 111 335 112 338 114 339 c 0
 115 340 117 344 117 346 c 0
 118 349 119 353 120 354 c 0
 121 356 121 358 121 358 c 2
 121 360 125 366 126 365 c 0
 127 365 129 362 131 358 c 0
 133 353 135 349 135 348 c 0
EndSplineSet
EndChar
StartChar: uni0042
Encoding: 66 66 3
Width: 244
Flags: W
LayerCount: 2
Fore
SplineSet
44 434 m 0
 43 433 39 433 35 433 c 0
 28 432 22 429 20 425 c 0
 19 421 20 377 21 356 c 0
 22 349 22 344 20 339 c 1
 19 332 19 328 20 320 c 0
 21 306 21 296 20 293 c 0
 19 292 19 286 20 276 c 0
 20 268 20 260 20 258 c 0
 20 256 20 251 21 246 c 0
 22 239 22 229 22 215 c 1
 21 208 23 191 24 182 c 0
 26 169 26 168 50 167 c 0
 52 166 54 166 54 166 c 1
 56 164 62 166 65 169 c 0
 67 172 67 172 79 172 c 0
 93 172 94 172 105 173 c 0
 110 174 116 174 118 174 c 0
 122 174 131 176 141 178 c 0
 143 179 148 180 151 180 c 0
 160 181 179 189 187 195 c 0
 189 196 193 197 196 198 c 0
 200 199 201 200 203 203 c 0
 204 205 208 209 210 211 c 0
 213 213 215 216 215 217 c 0
 215 220 216 221 218 223 c 1
 227 227 227 259 219 287 c 0
 218 290 217 295 216 297 c 0
 215 303 198 320 193 320 c 0
 191 320 188 321 186 322 c 0
 184 324 180 325 177 325 c 0
 171 326 171 327 175 335 c 0
 176 338 178 342 178 342 c 2
 178 343 179 346 180 348 c 0
 181 351 182 353 181 354 c 0
 181 355 181 356 182 357 c 0
 187 366 187 398 182 408 c 0
 178 416 169 423 162 423 c 0
 160 423 159 423 158 425 c 0
 158 426 157 427 156 428 c 0
 155 428 152 429 149 431 c 0
 144 433 137 434 129 433 c 0
 128 433 124 433 121 434 c 0
 117 435 114 435 113 434 c 0
 112 433 109 433 107 434 c 0
 105 434 102 434 99 435 c 0
 96 435 91 435 88 436 c 1
 84 436 81 436 80 435 c 0
 79 434 70 434 64 435 c 0
 63 435 58 435 54 435 c 0
 49 435 45 434 44 434 c 0
141 400 m 0
 144 400 146 399 148 398 c 1
 149 396 151 395 152 395 c 0
 153 395 155 394 156 393 c 0
 157 392 160 391 161 390 c 0
 173 384 173 367 162 357 c 0
 159 354 155 350 152 347 c 0
 149 344 146 342 145 342 c 0
 144 342 143 342 143 341 c 0
 143 340 142 340 141 340 c 0
 140 340 139 340 138 339 c 0
 135 333 72 326 63 331 c 0
 61 332 60 333 60 333 c 1
 60 335 59 350 59 353 c 0
 59 354 59 361 59 368 c 0
 59 375 59 385 58 389 c 0
 57 400 58 400 81 400 c 0
 97 400 106 400 107 402 c 0
 108 403 109 403 112 402 c 0
 115 401 125 400 141 400 c 0
103 284 m 0
 108 283 114 283 115 282 c 0
 118 281 135 280 155 280 c 1
 163 279 169 279 171 278 c 0
 172 277 175 276 179 275 c 0
 186 274 197 267 197 265 c 0
 197 264 197 263 198 262 c 0
 199 261 200 260 200 258 c 0
 200 257 200 255 201 253 c 0
 202 250 200 245 197 245 c 0
 196 245 193 243 190 241 c 0
 187 239 183 236 181 235 c 0
 178 234 175 232 174 230 c 0
 170 226 164 224 159 224 c 0
 156 224 150 223 146 222 c 0
 141 220 134 219 128 219 c 1
 123 218 115 217 110 217 c 0
 90 215 65 215 61 218 c 0
 60 219 60 222 60 226 c 0
 60 230 60 238 59 245 c 0
 58 269 58 285 59 285 c 1
 59 286 62 285 66 285 c 0
 72 284 74 284 78 285 c 0
 86 287 86 287 90 286 c 0
 92 285 98 284 103 284 c 0
EndSplineSet
EndChar
StartChar: uni0043
Encoding: 67 67 4
Width: 209
Flags: W
LayerCount: 2
Fore
SplineSet
95 441 m 0
 92 440 88 439 87 439 c 2
 87 439 84 437 81 434 c 0
 78 432 74 429 72 428 c 0
 67 426 59 418 56 413 c 0
 54 411 53 409 52 409 c 0
 48 409 38 394 37 386 c 0
 36 384 35 381 33 378 c 0
 31 375 30 373 30 372 c 2
 30 372 29 368 27 365 c 0
 19 347 15 314 18 299 c 0
 19 297 19 293 20 292 c 0
 21 277 23 272 25 271 c 0
 26 270 26 269 26 268 c 0
 26 267 27 265 28 262 c 0
 29 260 30 257 29 256 c 0
 29 255 30 253 31 251 c 0
 33 248 33 247 32 245 c 0
 31 243 31 243 36 229 c 0
 41 216 43 212 45 211 c 0
 46 210 47 209 47 209 c 2
 47 208 49 205 51 202 c 0
 53 199 55 196 55 195 c 2
 55 195 57 193 59 191 c 0
 61 188 64 184 66 182 c 0
 69 179 72 177 78 174 c 0
 94 166 97 165 110 164 c 0
 117 164 123 164 124 163 c 1
 126 163 127 163 128 164 c 0
 128 165 130 165 133 165 c 0
 135 165 137 165 138 166 c 0
 138 167 140 167 142 168 c 0
 144 169 148 170 149 172 c 1
 152 174 163 180 165 180 c 0
 166 180 169 183 172 186 c 0
 176 189 180 192 181 193 c 0
 183 194 184 195 185 197 c 0
 186 198 187 201 188 203 c 0
 192 208 193 235 191 241 c 0
 189 246 188 246 185 242 c 0
 182 239 177 234 172 229 c 0
 170 228 168 227 165 227 c 0
 162 226 161 226 159 224 c 0
 158 222 155 221 152 220 c 0
 150 219 146 218 145 217 c 0
 140 215 124 213 112 213 c 0
 99 213 94 215 84 225 c 0
 81 228 78 231 76 231 c 0
 75 231 73 232 73 233 c 0
 67 245 63 254 63 256 c 0
 63 257 62 260 62 261 c 0
 61 262 60 265 60 266 c 0
 60 268 59 272 58 275 c 0
 54 286 55 306 60 322 c 0
 61 323 62 326 62 328 c 0
 62 329 64 332 65 335 c 0
 66 337 67 340 67 340 c 1
 67 343 73 355 76 359 c 0
 77 360 78 362 79 363 c 0
 81 367 90 378 94 381 c 0
 96 382 99 385 102 387 c 0
 111 396 119 399 135 400 c 0
 148 400 151 399 155 390 c 0
 156 388 158 385 159 383 c 0
 161 380 163 376 164 374 c 0
 165 369 168 367 174 366 c 0
 175 365 178 364 180 362 c 0
 187 357 191 359 191 366 c 0
 191 368 192 371 192 373 c 0
 193 377 193 379 191 385 c 0
 190 388 189 393 189 394 c 0
 189 405 167 432 154 437 c 0
 152 437 147 440 144 441 c 0
 140 443 137 444 136 443 c 1
 134 443 131 444 129 444 c 0
 123 446 120 446 108 444 c 0
 104 444 98 442 95 441 c 0
EndSplineSet
EndChar

StartChar: uni0044
Encoding: 68 68 5
Width: 247
Flags: W
LayerCount: 2
Fore
SplineSet
32 442 m 0
 28 442 28 442 26 439 c 0
 22 431 18 398 20 392 c 0
 23 385 24 377 23 375 c 0
 22 374 22 371 23 367 c 0
 24 361 24 354 23 344 c 0
 23 343 23 337 24 330 c 1
 24 322 24 315 24 314 c 0
 24 313 24 306 24 300 c 0
 24 294 24 286 24 282 c 0
 24 268 24 251 25 249 c 0
 27 246 27 217 26 213 c 0
 25 210 25 208 26 208 c 1
 26 207 27 202 28 198 c 1
 28 193 29 188 29 188 c 2
 29 187 30 185 30 184 c 0
 31 180 39 173 44 172 c 0
 51 170 52 170 72 170 c 0
 82 170 92 170 93 170 c 0
 98 170 117 173 120 175 c 0
 121 175 126 177 130 178 c 0
 139 180 143 181 152 185 c 0
 156 187 159 189 160 189 c 0
 161 189 163 190 165 192 c 0
 168 194 170 195 171 195 c 2
 171 195 174 197 176 200 c 1
 179 202 182 204 183 204 c 0
 185 204 187 205 188 206 c 0
 192 208 209 226 209 227 c 0
 209 228 210 230 212 232 c 0
 214 235 216 239 217 241 c 0
 218 244 219 246 219 247 c 0
 220 249 221 252 221 254 c 0
 222 257 223 261 224 263 c 0
 230 276 228 332 221 354 c 0
 219 358 218 364 217 368 c 0
 215 375 212 381 209 385 c 0
 208 386 207 388 207 389 c 0
 207 390 202 398 197 405 c 0
 193 412 183 421 178 424 c 0
 176 426 173 428 172 429 c 0
 171 431 161 435 149 439 c 0
 143 441 139 441 115 441 c 1
 99 442 86 442 85 443 c 0
 81 444 79 444 71 442 c 0
 64 440 43 440 32 442 c 0
131 403 m 0
 137 404 142 403 150 399 c 0
 154 397 l 1
 157 397 173 378 173 375 c 1
 173 375 174 373 176 372 c 0
 177 371 178 369 178 368 c 0
 178 367 179 364 181 362 c 0
 183 359 184 355 185 349 c 0
 186 344 187 338 187 336 c 0
 190 324 188 278 184 269 c 0
 184 267 183 265 183 264 c 0
 183 260 174 244 169 239 c 0
 163 232 146 220 143 220 c 0
 142 220 140 219 138 219 c 0
 136 218 133 217 130 216 c 0
 128 215 122 214 119 213 c 0
 101 208 99 208 79 208 c 0
 59 209 55 209 54 213 c 0
 54 214 53 217 52 220 c 0
 51 222 50 229 50 235 c 0
 49 241 49 249 48 254 c 0
 46 267 46 278 47 281 c 0
 48 282 48 284 47 287 c 0
 46 290 46 293 47 299 c 0
 49 306 49 311 48 328 c 0
 48 339 47 355 47 364 c 1
 46 372 46 383 45 387 c 0
 44 397 45 400 52 399 c 0
 59 398 64 399 67 400 c 0
 76 404 76 404 80 403 c 0
 83 402 122 402 131 403 c 0
EndSplineSet
EndChar

StartChar: uni0045
Encoding: 69 69 6
Width: 221
Flags: W
LayerCount: 2
Fore
SplineSet
120 443 m 0
 115 443 108 442 104 441 c 0
 98 439 91 439 81 439 c 1
 74 438 66 438 65 438 c 0
 64 438 58 438 51 438 c 0
 33 439 28 437 26 428 c 0
 25 426 24 422 22 421 c 1
 21 418 21 417 22 409 c 0
 22 404 23 399 22 398 c 0
 22 397 22 394 21 391 c 1
 21 387 20 384 20 384 c 1
 18 380 17 358 18 329 c 0
 19 320 19 309 19 304 c 0
 19 299 20 290 20 285 c 0
 21 274 22 257 22 238 c 1
 23 231 23 222 24 220 c 1
 24 217 24 214 24 212 c 0
 22 207 23 198 25 193 c 0
 27 190 28 187 28 185 c 0
 28 183 29 180 30 178 c 0
 32 174 32 174 37 174 c 0
 50 176 54 176 56 175 c 0
 59 173 76 173 82 175 c 0
 85 176 87 176 88 175 c 0
 89 174 93 174 100 175 c 0
 108 176 112 176 115 175 c 0
 119 174 129 174 154 176 c 0
 171 177 173 177 184 177 c 0
 196 176 200 178 201 187 c 0
 206 218 205 222 193 220 c 1
 184 220 161 219 134 218 c 0
 119 218 101 218 94 217 c 0
 73 215 62 217 60 221 c 0
 59 224 58 283 59 284 c 0
 59 285 63 285 67 285 c 0
 72 285 76 286 78 286 c 0
 80 287 82 287 87 286 c 1
 91 284 94 284 99 285 c 0
 102 285 107 286 111 285 c 0
 114 285 119 284 123 285 c 1
 132 285 152 284 166 282 c 0
 179 281 185 283 186 290 c 0
 187 292 187 296 188 298 c 0
 190 306 188 323 185 325 c 0
 184 326 168 327 148 327 c 0
 146 327 139 327 130 326 c 0
 113 324 100 324 96 326 c 0
 95 327 92 327 89 326 c 0
 85 325 60 325 58 327 c 1
 56 327 54 332 55 334 c 1
 55 334 55 343 54 353 c 0
 51 388 51 393 54 394 c 0
 55 395 64 396 76 396 c 1
 87 397 98 398 101 398 c 0
 104 399 109 400 111 400 c 0
 113 400 119 401 124 402 c 0
 135 404 150 403 159 399 c 0
 161 399 168 398 173 397 c 1
 179 397 184 396 185 396 c 0
 188 394 196 396 196 399 c 1
 197 400 198 402 199 405 c 0
 200 407 201 411 201 415 c 0
 201 418 201 424 201 428 c 0
 202 438 199 440 181 440 c 0
 176 440 169 441 166 441 c 0
 161 442 139 445 137 445 c 2
 137 445 134 444 132 444 c 0
 129 444 124 443 120 443 c 0
EndSplineSet
EndChar
StartChar: uni0046
Encoding: 70 70 7
Width: 207
Flags: W
LayerCount: 2
Fore
SplineSet
82 439 m 0
 78 438 73 437 70 437 c 0
 67 437 64 437 64 437 c 1
 63 436 60 437 56 437 c 0
 49 438 48 438 43 436 c 0
 40 434 35 433 33 433 c 0
 30 432 28 431 19 424 c 0
 16 421 16 420 20 401 c 0
 21 395 22 382 23 372 c 0
 24 362 25 349 26 345 c 0
 27 340 28 329 28 320 c 0
 28 311 29 301 29 296 c 0
 29 291 30 278 30 267 c 0
 30 256 31 245 32 244 c 0
 34 236 34 204 33 195 c 1
 30 186 42 178 62 174 c 0
 69 173 75 180 74 187 c 0
 73 189 73 194 73 199 c 0
 74 206 74 207 72 209 c 0
 70 211 70 216 66 276 c 0
 65 287 66 288 76 286 c 0
 85 285 90 285 103 286 c 0
 120 288 147 287 157 285 c 0
 162 284 162 284 165 287 c 0
 167 290 171 298 171 302 c 0
 171 303 171 305 172 306 c 0
 173 308 171 323 170 325 c 0
 169 326 164 326 149 326 c 0
 139 326 129 326 127 326 c 0
 125 326 119 326 114 325 c 0
 109 324 104 323 103 323 c 0
 101 324 94 324 85 324 c 0
 66 325 66 325 65 334 c 0
 64 337 64 343 64 347 c 0
 64 352 64 358 63 362 c 0
 61 373 60 393 61 395 c 0
 62 397 64 398 76 398 c 1
 81 399 88 400 92 401 c 0
 100 403 122 404 130 403 c 0
 133 402 138 402 140 403 c 0
 149 404 166 403 171 400 c 0
 176 396 178 397 184 402 c 0
 190 408 193 431 188 432 c 0
 187 433 186 434 186 435 c 0
 186 436 185 437 184 438 c 0
 183 438 162 440 140 440 c 1
 131 441 119 441 115 441 c 0
 111 442 103 441 98 441 c 0
 92 440 85 439 82 439 c 0
EndSplineSet
EndChar
StartChar: uni0047
Encoding: 71 71 8
Width: 242
Flags: W
LayerCount: 2
Fore
SplineSet
112 438 m 0
 108 437 104 437 102 436 c 0
 101 435 98 434 96 434 c 0
 94 434 90 432 86 430 c 0
 83 428 77 425 74 424 c 0
 71 423 68 421 67 419 c 1
 65 418 63 416 61 415 c 0
 58 413 56 411 55 410 c 0
 52 406 40 388 40 387 c 0
 40 386 39 384 38 383 c 0
 33 377 28 366 28 363 c 0
 28 359 25 343 23 337 c 0
 20 326 18 292 20 290 c 0
 21 289 21 288 21 287 c 0
 20 286 22 266 23 260 c 0
 23 257 24 252 25 249 c 0
 26 243 31 231 35 223 c 0
 39 217 54 201 59 199 c 0
 60 199 62 198 62 197 c 0
 62 196 63 195 65 194 c 0
 67 194 70 192 71 191 c 0
 78 187 90 183 107 178 c 0
 111 177 124 177 141 178 c 0
 149 179 162 184 166 188 c 0
 168 190 171 190 176 191 c 0
 185 192 193 198 200 213 c 0
 202 216 206 221 207 223 c 0
 209 225 211 229 212 231 c 1
 212 234 214 239 215 243 c 0
 216 246 217 250 217 251 c 0
 217 253 219 263 221 267 c 0
 223 272 224 296 221 301 c 1
 221 303 220 306 220 308 c 0
 220 314 213 321 208 320 c 0
 205 319 174 318 173 319 c 0
 168 323 124 319 124 315 c 0
 124 314 123 313 123 312 c 0
 121 310 117 298 116 291 c 0
 116 284 116 284 120 282 c 1
 123 279 124 279 126 280 c 0
 128 281 135 282 149 282 c 0
 161 282 175 282 180 282 c 0
 198 283 198 283 198 274 c 0
 198 266 197 264 194 255 c 0
 193 252 192 248 192 247 c 0
 192 243 185 236 179 233 c 0
 176 231 173 230 172 229 c 0
 172 228 164 224 162 224 c 0
 161 224 159 223 158 222 c 0
 155 221 145 219 138 219 c 0
 128 219 109 221 107 222 c 0
 105 223 102 223 101 223 c 0
 99 223 96 224 95 224 c 0
 94 225 89 227 85 229 c 0
 61 241 48 259 44 283 c 0
 44 289 42 295 42 297 c 1
 41 298 41 299 42 301 c 0
 43 302 43 304 42 307 c 0
 41 309 41 317 41 325 c 0
 41 339 41 340 45 346 c 1
 46 350 48 353 48 354 c 0
 48 362 62 380 67 380 c 0
 68 380 70 382 71 383 c 0
 77 389 97 394 116 393 c 1
 144 393 145 393 156 387 c 0
 162 383 167 381 168 381 c 0
 171 381 172 380 175 377 c 0
 178 374 181 372 183 371 c 0
 186 369 192 363 192 361 c 0
 192 358 206 347 210 348 c 0
 212 349 217 356 217 361 c 0
 217 363 218 366 219 368 c 0
 223 377 219 393 209 404 c 0
 196 418 192 422 179 428 c 0
 176 430 173 432 172 432 c 0
 171 433 170 434 169 434 c 0
 168 434 165 435 163 436 c 0
 161 436 157 437 154 437 c 0
 151 438 146 438 143 439 c 0
 137 440 129 440 123 439 c 0
 121 438 116 438 112 438 c 0
EndSplineSet
EndChar
StartChar: uni0048
Encoding: 72 72 9
Width: 257
Flags: W
LayerCount: 2
Fore
SplineSet
21 418 m 0
 21 417 21 413 21 409 c 0
 19 390 21 349 24 340 c 0
 25 338 25 334 25 330 c 0
 25 324 27 315 29 311 c 0
 31 307 30 269 28 257 c 0
 27 254 28 252 29 251 c 0
 30 249 31 249 29 246 c 1
 29 244 28 238 28 228 c 0
 28 220 28 206 28 197 c 0
 28 177 29 175 34 180 c 0
 36 182 37 182 40 180 c 0
 45 176 58 178 59 182 c 0
 59 184 60 185 62 185 c 0
 65 185 65 185 64 215 c 0
 64 231 63 247 63 249 c 0
 62 253 65 278 66 280 c 0
 67 281 70 281 78 278 c 0
 86 275 106 275 139 279 c 0
 142 279 147 279 150 278 c 0
 153 277 159 277 163 277 c 0
 170 276 179 275 192 273 c 0
 198 272 198 272 198 257 c 0
 196 220 195 204 194 198 c 0
 190 174 195 167 212 172 c 0
 214 173 218 173 221 173 c 0
 232 173 233 176 234 206 c 0
 237 261 237 274 237 315 c 1
 236 338 236 371 236 387 c 0
 237 433 238 430 222 430 c 0
 202 430 201 428 200 406 c 0
 200 397 199 389 199 387 c 0
 198 384 198 381 198 380 c 0
 199 378 199 375 198 374 c 0
 198 373 198 363 198 353 c 0
 198 343 198 331 198 327 c 0
 197 320 197 320 190 320 c 0
 173 320 160 321 156 322 c 0
 153 323 148 323 142 322 c 0
 136 322 131 321 130 321 c 0
 129 321 120 321 110 320 c 0
 90 319 74 319 74 320 c 2
 74 320 72 321 69 321 c 1
 65 323 65 323 62 336 c 0
 61 343 60 349 59 350 c 1
 59 350 59 352 59 354 c 0
 59 356 59 363 58 370 c 0
 57 383 57 390 59 419 c 0
 60 430 59 430 48 431 c 0
 41 431 37 430 33 429 c 0
 26 426 21 422 21 418 c 0
EndSplineSet
EndChar
StartChar: uni0049
Encoding: 73 73 10
Width: 89
Flags: W
LayerCount: 2
Fore
SplineSet
18 532 m 0
 8 515 6 501 12 491 c 0
 13 488 15 484 16 482 c 0
 18 479 22 475 31 471 c 1
 41 465 56 468 65 477 c 0
 68 481 76 497 76 501 c 1
 76 501 77 503 78 505 c 0
 84 517 81 526 68 536 c 0
 57 545 54 546 42 547 c 0
 33 547 32 547 28 544 c 0
 25 542 22 539 18 532 c 0
22 405 m 0
 22 394 20 383 19 377 c 0
 17 371 16 321 17 293 c 0
 17 288 17 280 16 277 c 1
 16 273 16 261 15 250 c 0
 15 239 14 222 14 211 c 0
 14 200 14 190 14 189 c 0
 13 183 18 174 22 172 c 0
 28 170 48 171 51 173 c 0
 54 174 55 183 55 221 c 0
 55 238 56 261 56 273 c 0
 57 305 58 335 58 349 c 0
 58 355 59 370 60 381 c 0
 63 415 63 421 61 424 c 0
 59 427 41 428 34 425 c 1
 25 423 23 418 22 405 c 0
EndSplineSet
EndChar
StartChar: uni004A
Encoding: 74 74 11
Width: 221
Flags: W
LayerCount: 2
Fore
SplineSet
138 511 m 1
 137 498 147 485 163 482 c 0
 183 478 187 479 192 490 c 0
 193 493 196 499 198 503 c 0
 205 516 206 526 201 538 c 0
 197 548 179 555 166 552 c 0
 153 550 142 531 138 511 c 1
152 408 m 0
 152 392 151 379 150 371 c 0
 149 363 148 352 148 345 c 0
 147 333 147 326 146 324 c 0
 145 322 145 317 145 311 c 0
 144 293 143 268 141 260 c 0
 141 257 140 253 140 250 c 0
 140 236 131 213 124 206 c 0
 116 197 96 192 83 196 c 0
 81 197 78 198 77 198 c 0
 75 198 67 206 67 207 c 0
 67 208 65 210 64 213 c 0
 62 216 61 219 61 220 c 0
 61 221 60 224 58 228 c 1
 57 233 56 236 56 258 c 0
 56 276 56 282 55 283 c 0
 54 284 50 285 43 285 c 0
 24 285 17 281 18 270 c 0
 20 256 21 243 21 235 c 0
 21 216 29 196 38 191 c 0
 40 190 42 188 42 187 c 0
 42 185 55 180 64 179 c 0
 65 178 68 178 71 177 c 0
 74 176 82 176 93 176 c 0
 109 176 114 176 127 181 c 0
 129 181 133 182 135 183 c 0
 140 184 156 194 162 199 c 1
 170 208 182 237 183 251 c 0
 183 255 184 259 184 261 c 0
 185 266 186 285 187 304 c 0
 187 314 188 330 189 339 c 0
 191 378 192 387 192 403 c 0
 193 422 192 424 187 427 c 0
 184 428 171 428 163 427 c 0
 154 425 152 423 152 408 c 0
EndSplineSet
EndChar

StartChar: uni004B
Encoding: 75 75 12
Width: 279
Flags: W
LayerCount: 2
Fore
SplineSet
37 428 m 0
 35 419 33 408 32 384 c 0
 31 379 31 371 30 367 c 0
 27 352 26 344 26 316 c 0
 25 283 25 286 26 278 c 0
 26 274 26 270 25 268 c 0
 25 267 24 257 24 246 c 0
 24 235 24 220 23 212 c 0
 21 189 21 185 26 180 c 0
 31 175 38 171 40 172 c 0
 41 172 45 173 50 173 c 0
 63 173 66 175 63 185 c 0
 62 188 62 190 63 195 c 0
 64 198 65 201 64 202 c 1
 64 202 65 210 65 220 c 0
 67 241 67 242 66 251 c 0
 65 257 65 258 69 263 c 0
 71 266 74 269 75 270 c 0
 76 270 80 272 85 274 c 0
 89 276 95 280 98 283 c 0
 107 291 106 291 115 283 c 0
 119 279 123 276 123 276 c 2
 124 276 128 273 133 269 c 0
 141 261 157 249 159 249 c 1
 159 249 168 240 178 230 c 0
 199 208 199 209 208 201 c 0
 215 194 216 193 219 191 c 0
 221 190 225 186 228 183 c 0
 238 174 243 172 249 177 c 0
 252 179 256 191 257 196 c 0
 257 199 257 201 258 202 c 0
 260 205 252 220 249 220 c 0
 247 220 239 227 229 238 c 1
 224 242 220 246 219 246 c 0
 218 246 209 255 187 277 c 0
 181 282 173 289 167 293 c 0
 166 294 162 297 159 300 c 1
 155 302 150 306 148 308 c 0
 141 312 139 321 145 323 c 0
 146 323 148 324 149 326 c 0
 150 328 152 329 153 329 c 0
 154 330 156 330 158 330 c 1
 159 331 165 335 171 340 c 0
 177 345 183 349 185 350 c 0
 187 351 188 352 189 353 c 0
 189 354 191 356 192 357 c 0
 194 358 198 361 202 365 c 0
 206 369 210 372 211 372 c 0
 219 374 232 386 237 396 c 0
 238 398 236 413 234 417 c 0
 234 418 233 421 233 424 c 0
 232 432 228 435 225 431 c 0
 224 430 220 426 216 423 c 0
 212 420 207 415 205 413 c 0
 203 411 199 407 196 406 c 0
 193 404 190 401 188 399 c 0
 186 397 184 396 184 396 c 2
 183 396 180 393 176 390 c 0
 173 387 168 383 165 381 c 0
 162 380 157 376 153 373 c 0
 149 371 142 365 137 361 c 0
 129 353 119 346 108 339 c 0
 105 337 100 333 97 330 c 0
 94 328 88 324 84 321 c 0
 79 318 75 315 73 313 c 0
 69 310 68 311 67 317 c 0
 65 324 67 357 68 368 c 0
 69 371 70 376 70 378 c 0
 70 381 71 387 71 392 c 1
 72 396 72 406 72 413 c 1
 73 419 73 425 73 426 c 0
 75 429 73 432 69 434 c 0
 65 436 l 1
 65 436 61 435 56 435 c 0
 46 434 38 432 37 428 c 0
EndSplineSet
EndChar

StartChar: uni004C
Encoding: 76 76 13
Width: 237
Flags: W
LayerCount: 2
Fore
SplineSet
28 414 m 0
 27 405 26 350 26 336 c 0
 26 333 26 321 26 309 c 0
 26 297 26 285 26 283 c 0
 26 280 26 277 26 276 c 0
 26 275 26 270 25 266 c 1
 25 261 25 256 25 254 c 1
 26 253 26 250 25 246 c 0
 25 243 24 237 24 233 c 0
 24 228 24 223 23 221 c 0
 21 216 19 204 19 194 c 1
 18 186 23 181 31 182 c 0
 33 183 41 182 47 182 c 0
 53 181 65 181 74 181 c 0
 85 180 92 180 94 179 c 0
 97 178 100 178 106 179 c 0
 111 179 116 179 117 179 c 0
 118 179 127 178 137 179 c 1
 164 179 168 179 174 177 c 0
 177 176 181 175 182 175 c 0
 184 175 185 175 186 174 c 0
 187 172 195 172 197 174 c 0
 199 176 205 178 208 177 c 0
 211 177 215 181 216 187 c 0
 216 189 217 194 217 197 c 0
 221 219 220 221 203 220 c 0
 195 219 191 220 188 221 c 0
 186 222 178 222 151 222 c 0
 117 222 74 223 67 224 c 0
 64 224 64 228 66 263 c 0
 67 270 68 292 68 313 c 0
 68 367 68 375 67 381 c 0
 67 383 67 387 67 389 c 0
 68 392 69 407 68 424 c 0
 68 429 68 430 66 432 c 0
 63 434 48 434 41 432 c 0
 30 430 29 428 28 414 c 0
EndSplineSet
EndChar

StartChar: uni004D
Encoding: 77 77 14
Width: 319
Flags: W
LayerCount: 2
Fore
SplineSet
51 436 m 0
 49 434 48 433 46 434 c 1
 42 434 35 432 32 430 c 1
 28 425 25 355 27 298 c 0
 28 275 27 268 26 264 c 0
 26 261 25 253 25 238 c 0
 25 226 25 208 24 197 c 1
 24 174 24 170 31 171 c 0
 33 171 38 171 43 171 c 0
 56 172 56 171 57 240 c 0
 58 258 58 275 58 279 c 0
 59 283 59 304 59 326 c 0
 60 376 60 372 61 372 c 0
 63 372 71 362 71 361 c 0
 71 359 79 349 83 345 c 0
 85 343 87 340 87 339 c 0
 88 338 90 335 91 333 c 0
 93 330 95 327 96 326 c 0
 97 324 99 322 103 317 c 0
 104 316 106 314 106 312 c 0
 107 310 109 308 109 308 c 2
 110 307 112 305 112 304 c 0
 113 302 115 299 116 298 c 0
 118 297 120 293 121 291 c 0
 123 289 127 283 130 280 c 0
 136 272 143 261 143 259 c 0
 143 257 147 253 150 252 c 0
 151 251 152 250 153 249 c 0
 156 240 164 243 170 255 c 0
 173 260 176 264 190 279 c 0
 196 285 199 290 201 295 c 0
 202 297 204 299 206 300 c 0
 208 301 211 304 213 307 c 0
 221 317 222 319 228 325 c 0
 231 328 234 332 235 334 c 0
 238 338 242 342 252 352 c 0
 259 360 260 360 260 348 c 0
 260 344 260 333 260 323 c 0
 260 313 260 305 259 304 c 2
 259 304 259 285 258 263 c 0
 258 241 258 221 257 219 c 0
 256 208 255 197 254 196 c 0
 253 194 256 183 259 181 c 1
 261 178 266 178 269 180 c 0
 269 181 271 181 273 181 c 0
 277 180 284 183 286 186 c 0
 287 189 288 204 289 250 c 0
 290 265 290 277 291 277 c 1
 291 278 292 304 292 340 c 1
 293 355 293 371 294 377 c 0
 295 394 295 430 294 431 c 0
 292 432 284 434 283 434 c 0
 282 433 279 434 277 434 c 0
 271 435 265 431 263 425 c 0
 263 422 261 419 258 416 c 0
 255 413 253 411 253 410 c 0
 254 409 249 402 242 395 c 0
 239 391 236 388 236 388 c 2
 236 387 234 386 233 384 c 0
 231 382 227 377 223 373 c 0
 220 369 215 363 211 360 c 1
 205 353 204 352 198 343 c 0
 197 341 194 337 192 336 c 0
 189 334 183 327 180 320 c 0
 178 316 162 301 160 301 c 0
 159 301 157 303 156 305 c 0
 155 307 151 311 148 314 c 0
 145 317 142 320 141 321 c 0
 141 322 138 327 135 331 c 0
 131 336 127 342 125 346 c 0
 121 351 114 360 108 366 c 0
 106 368 104 371 102 373 c 0
 101 375 99 377 98 378 c 0
 97 379 96 381 96 381 c 2
 96 382 83 401 80 405 c 1
 78 406 77 409 76 410 c 0
 75 412 73 415 63 432 c 0
 58 440 56 441 53 439 c 1
 53 439 52 437 51 436 c 0
EndSplineSet
EndChar
StartChar: uni004E
Encoding: 78 78 15
Width: 331
Flags: W
LayerCount: 2
Fore
SplineSet
268 426 m 0
 268 424 267 420 266 418 c 0
 265 414 263 400 262 382 c 0
 262 378 261 373 261 370 c 0
 260 365 259 346 260 333 c 0
 260 332 260 329 260 328 c 0
 259 327 260 319 260 312 c 0
 260 303 260 295 259 288 c 0
 259 281 258 267 258 255 c 0
 258 232 258 231 253 238 c 0
 251 240 248 243 246 244 c 0
 245 244 243 247 242 249 c 0
 240 252 232 265 231 266 c 0
 230 266 225 274 221 280 c 0
 221 281 219 284 217 286 c 0
 215 289 206 300 196 310 c 0
 185 321 176 331 175 332 c 1
 175 334 171 339 167 344 c 0
 163 348 158 353 156 356 c 0
 154 358 145 368 136 377 c 0
 127 386 118 396 116 398 c 0
 113 403 108 410 107 411 c 0
 104 413 102 418 102 420 c 0
 102 422 101 423 101 424 c 1
 100 424 99 426 97 429 c 0
 94 435 92 436 78 436 c 0
 63 436 58 433 58 425 c 0
 58 416 58 399 58 393 c 0
 58 389 59 381 60 374 c 0
 61 361 61 359 60 320 c 0
 60 292 59 280 58 269 c 0
 57 262 55 242 54 218 c 0
 54 214 53 208 52 204 c 0
 48 188 50 175 57 177 c 0
 58 177 63 177 69 178 c 1
 86 178 90 180 88 187 c 0
 88 189 88 192 89 194 c 0
 90 196 91 199 91 201 c 0
 91 203 91 209 92 215 c 0
 93 220 94 226 94 227 c 0
 93 233 95 261 96 266 c 0
 97 273 98 295 98 311 c 0
 98 330 100 352 102 352 c 0
 104 352 110 348 114 342 c 0
 116 339 121 334 124 331 c 0
 127 329 130 325 131 323 c 0
 132 322 134 318 137 316 c 1
 139 313 143 308 145 305 c 0
 148 301 151 296 152 295 c 0
 154 294 156 292 156 291 c 0
 157 290 160 287 163 285 c 0
 166 283 169 280 169 279 c 0
 170 278 172 276 174 274 c 0
 179 268 182 263 182 262 c 0
 182 261 183 260 184 260 c 0
 186 260 187 259 188 257 c 0
 189 255 192 252 195 250 c 0
 198 247 201 243 202 240 c 1
 204 238 207 233 210 229 c 0
 213 226 217 221 219 218 c 1
 220 214 224 209 226 206 c 0
 229 202 233 197 235 195 c 1
 236 192 239 189 241 188 c 0
 242 187 247 182 250 177 c 0
 260 163 265 160 270 165 c 0
 273 169 276 169 284 170 c 1
 294 170 294 170 294 189 c 0
 294 198 295 208 296 213 c 0
 297 220 297 239 296 268 c 0
 296 272 297 282 298 289 c 0
 299 298 299 306 298 315 c 0
 297 335 297 358 298 365 c 0
 299 373 301 394 303 406 c 0
 303 411 304 418 305 421 c 0
 308 430 307 436 304 436 c 1
 302 437 299 437 297 438 c 0
 291 439 282 439 278 438 c 0
 273 436 269 431 268 426 c 0
25 419 m 0
 26 421 26 423 25 425 c 0
 25 427 25 426 25 422 c 0
 25 418 25 417 25 419 c 0
EndSplineSet
EndChar
StartChar: uni004F
Encoding: 79 79 16
Width: 298
Flags: W
LayerCount: 2
Fore
SplineSet
149 453 m 0
 144 452 139 451 138 450 c 0
 137 450 135 449 133 449 c 0
 132 449 130 448 129 448 c 0
 128 447 124 444 119 442 c 0
 115 440 110 437 109 436 c 0
 108 435 106 434 104 433 c 0
 96 429 76 402 72 392 c 0
 71 390 69 384 67 380 c 0
 64 376 63 371 63 370 c 0
 63 369 59 359 55 353 c 0
 54 351 53 348 53 346 c 0
 52 343 51 339 51 336 c 0
 48 321 51 277 55 271 c 0
 56 269 57 268 57 267 c 0
 57 265 58 262 59 260 c 0
 61 257 62 253 62 250 c 0
 62 248 62 246 63 244 c 0
 64 243 65 240 66 237 c 0
 67 231 69 228 78 218 c 0
 82 213 85 209 85 208 c 0
 85 207 88 204 98 199 c 0
 103 196 110 192 114 189 c 0
 117 187 121 185 122 185 c 0
 123 185 126 184 127 183 c 0
 128 182 130 181 131 181 c 2
 131 181 133 180 135 179 c 0
 141 177 142 176 151 174 c 0
 164 170 168 170 171 171 c 0
 173 171 176 172 179 172 c 1
 181 171 184 172 186 172 c 0
 188 173 190 173 192 172 c 0
 194 171 196 172 200 173 c 0
 203 174 206 175 207 175 c 0
 215 175 235 191 242 202 c 0
 246 208 251 217 251 219 c 1
 251 219 252 222 254 224 c 0
 255 226 257 229 257 229 c 2
 257 230 258 232 259 235 c 0
 260 237 261 240 261 240 c 2
 261 242 261 243 264 249 c 0
 267 254 270 263 270 267 c 0
 270 268 270 272 271 275 c 0
 273 282 275 291 274 292 c 0
 274 293 274 296 275 299 c 0
 276 302 276 306 276 311 c 0
 276 314 276 324 276 331 c 0
 276 339 275 346 275 347 c 0
 274 348 274 352 273 356 c 1
 273 362 271 371 267 381 c 0
 266 383 266 386 266 387 c 0
 266 389 264 393 263 397 c 1
 261 400 260 403 260 404 c 0
 260 406 237 429 236 429 c 0
 235 429 233 431 231 433 c 0
 227 437 217 443 214 443 c 0
 213 443 212 443 211 444 c 0
 209 446 190 453 183 454 c 0
 176 456 164 456 161 455 c 0
 160 454 154 454 149 453 c 0
183 409 m 0
 187 408 191 407 192 407 c 0
 193 407 214 395 216 393 c 0
 217 392 220 391 221 390 c 0
 229 386 243 367 243 361 c 0
 243 360 243 359 244 358 c 0
 246 355 248 345 248 337 c 1
 249 333 249 329 250 329 c 0
 251 327 253 306 253 295 c 0
 253 286 251 273 250 270 c 0
 249 269 249 266 249 265 c 0
 249 264 248 261 247 259 c 0
 246 257 245 254 245 253 c 0
 245 252 244 249 242 247 c 1
 241 244 238 239 236 235 c 0
 229 222 223 217 214 215 c 0
 211 215 208 214 208 213 c 0
 205 211 184 211 176 212 c 0
 162 214 152 217 140 223 c 0
 134 226 129 228 129 228 c 2
 128 228 127 229 125 230 c 0
 123 232 120 233 118 234 c 0
 113 237 103 246 103 248 c 1
 103 248 102 249 101 249 c 0
 100 249 99 250 98 252 c 0
 97 253 95 256 94 258 c 0
 91 261 84 276 83 282 c 0
 83 284 82 287 81 289 c 0
 80 291 78 296 77 300 c 0
 76 303 75 309 73 313 c 0
 72 317 71 321 71 333 c 0
 71 347 71 347 78 361 c 0
 81 366 83 370 85 374 c 0
 86 377 88 380 89 381 c 0
 96 385 103 389 103 390 c 0
 103 392 115 404 118 404 c 0
 120 404 121 405 123 408 c 0
 126 412 126 412 140 413 c 0
 157 414 163 414 170 413 c 0
 173 412 179 411 183 409 c 0
23 431 m 0
 24 432 24 434 23 434 c 1
 23 435 23 434 23 433 c 0
 23 431 23 430 23 431 c 0
EndSplineSet
EndChar
StartChar: uni0050
Encoding: 80 80 17
Width: 263
Flags: W
LayerCount: 2
Fore
SplineSet
23 413 m 0
 23 407 26 401 28 401 c 0
 31 400 32 396 31 390 c 0
 30 387 29 382 29 380 c 0
 29 377 28 371 28 367 c 0
 27 362 27 358 27 356 c 0
 27 354 27 352 27 350 c 0
 26 348 26 346 27 344 c 0
 28 341 27 338 26 330 c 0
 25 325 24 316 24 310 c 0
 24 304 23 298 23 297 c 0
 23 296 22 291 23 288 c 1
 23 284 23 276 23 270 c 0
 23 263 23 255 23 251 c 0
 24 247 24 243 23 242 c 1
 23 240 22 229 22 216 c 0
 22 203 21 190 21 186 c 0
 20 180 20 180 24 177 c 0
 29 173 29 173 36 174 c 1
 45 174 44 174 50 173 c 0
 54 173 59 176 59 179 c 1
 59 179 60 181 61 183 c 0
 61 184 62 192 62 204 c 0
 62 226 64 240 66 242 c 0
 69 245 115 248 117 245 c 0
 119 242 141 245 151 249 c 0
 153 249 156 250 158 250 c 0
 165 250 173 253 183 260 c 0
 188 263 201 269 205 270 c 0
 206 271 209 273 212 276 c 0
 215 279 219 282 221 283 c 0
 224 286 231 299 231 302 c 0
 231 303 232 305 233 305 c 0
 237 307 240 321 241 333 c 0
 241 337 242 345 242 351 c 0
 243 365 243 370 241 374 c 0
 240 376 240 377 241 378 c 0
 243 380 243 385 240 391 c 0
 239 394 237 397 237 397 c 1
 237 402 227 416 219 423 c 0
 207 432 205 433 201 433 c 1
 199 432 198 432 198 434 c 1
 197 435 195 436 192 436 c 1
 190 437 186 438 185 439 c 0
 183 441 180 441 170 442 c 0
 163 443 156 443 155 444 c 0
 154 444 149 445 145 444 c 0
 141 444 135 444 131 444 c 0
 125 444 119 444 109 444 c 0
 106 444 88 444 69 444 c 0
 50 444 34 444 34 444 c 1
 30 442 23 421 23 413 c 0
144 400 m 0
 146 400 148 400 149 400 c 1
 149 399 152 399 154 399 c 0
 156 399 161 398 164 397 c 0
 167 396 171 395 172 395 c 0
 177 395 185 392 191 388 c 0
 195 386 199 384 200 384 c 0
 201 384 211 374 211 372 c 1
 211 372 213 369 215 366 c 0
 218 363 219 361 220 358 c 1
 220 347 220 328 219 326 c 0
 218 320 196 301 190 301 c 0
 189 301 186 299 184 298 c 0
 182 296 177 293 172 292 c 0
 168 291 164 289 163 289 c 0
 161 288 159 288 158 288 c 0
 156 288 154 287 153 287 c 0
 151 286 145 285 139 285 c 1
 134 284 127 284 125 283 c 0
 119 282 112 282 106 284 c 0
 103 285 98 285 86 285 c 0
 64 286 64 285 65 300 c 0
 65 306 66 315 66 320 c 0
 66 337 69 375 70 387 c 0
 72 401 73 402 78 401 c 0
 84 400 101 400 109 402 c 0
 113 402 118 403 119 402 c 1
 121 402 126 401 131 400 c 1
 138 400 142 399 144 400 c 0
EndSplineSet
EndChar
StartChar: uni0051
Encoding: 81 81 18
Width: 259
Flags: W
LayerCount: 2
Fore
SplineSet
93 445 m 1
 86 445 76 440 69 433 c 0
 57 423 56 421 54 417 c 0
 47 403 45 398 42 394 c 0
 40 392 39 389 39 388 c 0
 39 387 38 385 36 383 c 0
 35 381 33 378 33 377 c 0
 32 375 31 373 31 372 c 0
 30 370 29 367 28 364 c 0
 27 360 26 356 25 355 c 0
 24 353 24 351 24 351 c 1
 25 350 24 345 23 341 c 0
 20 324 19 286 22 278 c 0
 22 276 23 272 23 268 c 0
 23 264 24 259 25 256 c 0
 26 253 27 249 28 246 c 0
 29 243 31 240 31 239 c 0
 32 237 33 234 34 232 c 1
 34 229 37 225 40 222 c 0
 43 219 46 215 47 213 c 0
 49 210 52 207 61 198 c 0
 63 196 66 194 67 192 c 0
 71 188 81 181 84 181 c 0
 85 181 87 180 90 179 c 0
 99 174 105 173 121 173 c 0
 136 173 150 174 156 177 c 0
 167 182 172 181 177 172 c 0
 179 169 182 166 184 165 c 0
 185 164 187 161 188 159 c 0
 193 151 196 147 198 147 c 1
 199 146 200 145 200 144 c 0
 202 139 203 137 206 133 c 0
 208 131 210 129 210 129 c 1
 210 127 212 128 216 130 c 0
 220 132 221 133 225 140 c 0
 227 145 229 149 230 150 c 0
 232 152 235 161 234 164 c 0
 234 165 232 169 230 171 c 0
 228 173 226 177 225 180 c 0
 223 184 219 190 210 200 c 1
 204 209 204 208 210 216 c 0
 213 219 216 225 217 227 c 0
 219 232 221 235 227 242 c 0
 229 245 231 249 231 251 c 0
 232 254 233 257 234 259 c 0
 235 262 236 267 237 275 c 0
 237 281 238 287 239 288 c 0
 240 290 239 313 238 318 c 0
 237 321 236 325 237 328 c 0
 237 331 236 336 236 339 c 1
 235 341 234 349 233 355 c 0
 232 365 231 368 228 374 c 0
 227 377 225 382 224 384 c 0
 223 386 222 389 221 391 c 0
 221 392 219 395 217 397 c 0
 215 399 214 402 214 403 c 0
 214 404 213 406 212 407 c 0
 210 408 209 409 209 410 c 0
 205 419 195 429 190 429 c 0
 189 429 187 430 186 432 c 0
 182 436 166 442 160 442 c 0
 157 442 148 444 144 445 c 0
 141 446 137 446 118 447 c 0
 113 448 107 447 104 447 c 0
 101 447 97 446 93 445 c 1
156 400 m 0
 166 400 195 384 195 378 c 0
 195 377 197 374 199 370 c 0
 202 366 204 363 204 361 c 0
 204 359 205 357 207 355 c 0
 212 352 219 328 219 310 c 0
 220 285 220 282 219 278 c 0
 218 276 216 273 216 270 c 1
 215 268 213 265 212 263 c 1
 210 262 207 258 206 255 c 0
 202 249 189 235 186 235 c 0
 183 235 173 247 169 255 c 0
 163 271 157 272 146 258 c 0
 139 249 136 243 136 240 c 0
 136 239 135 238 135 237 c 0
 133 236 134 233 140 225 c 0
 148 216 147 215 132 214 c 1
 116 214 97 218 89 222 c 0
 87 223 79 229 77 231 c 0
 76 232 73 235 70 237 c 0
 64 240 53 252 53 254 c 0
 53 255 51 258 49 261 c 0
 47 264 46 267 46 268 c 0
 46 269 45 271 44 272 c 0
 43 276 40 290 39 303 c 0
 37 317 41 342 46 349 c 1
 46 349 47 352 47 354 c 0
 48 358 49 360 51 362 c 0
 55 366 60 375 64 382 c 0
 65 384 67 387 69 388 c 0
 72 389 75 392 77 394 c 0
 78 396 81 397 83 398 c 0
 85 398 89 399 90 400 c 0
 93 401 96 402 101 402 c 0
 105 402 110 403 111 404 c 0
 116 406 144 404 149 402 c 0
 152 401 155 400 156 400 c 0
EndSplineSet
EndChar
StartChar: uni0052
Encoding: 82 82 19
Width: 285
Flags: W
LayerCount: 2
Fore
SplineSet
89 450 m 0
 79 449 68 447 65 447 c 0
 61 446 53 446 47 446 c 0
 34 446 34 446 33 443 c 0
 33 442 32 440 31 439 c 0
 30 438 29 436 29 433 c 0
 29 431 28 428 27 426 c 0
 25 422 24 412 25 411 c 0
 27 409 28 403 28 395 c 0
 28 391 28 387 29 386 c 0
 29 385 30 374 30 362 c 0
 30 350 31 337 31 333 c 0
 31 329 32 325 32 323 c 0
 32 321 32 319 32 319 c 1
 33 318 33 312 32 282 c 0
 32 275 31 266 30 263 c 0
 29 257 28 249 28 238 c 0
 28 234 27 226 26 219 c 0
 25 212 24 205 24 203 c 0
 24 201 24 195 23 190 c 0
 21 174 22 172 41 174 c 0
 47 175 54 175 56 175 c 0
 59 175 60 175 60 176 c 0
 60 177 61 179 62 180 c 1
 62 182 63 184 63 185 c 0
 62 186 63 189 63 191 c 0
 64 194 64 202 65 209 c 1
 65 222 67 235 68 243 c 0
 69 247 81 249 98 248 c 0
 99 248 102 248 104 249 c 0
 110 250 122 249 127 247 c 0
 131 246 132 246 135 247 c 0
 144 251 152 247 159 237 c 0
 160 234 164 230 166 228 c 0
 170 223 173 219 178 210 c 0
 180 206 183 202 184 200 c 0
 185 198 186 196 186 195 c 0
 186 194 187 193 188 191 c 0
 189 190 190 188 190 187 c 2
 190 187 193 183 196 180 c 0
 201 176 202 173 203 169 c 0
 207 157 220 156 226 167 c 0
 227 169 229 172 230 172 c 0
 232 173 238 185 238 188 c 0
 238 191 234 200 231 202 c 0
 230 203 229 205 229 205 c 2
 229 206 228 208 227 209 c 0
 226 210 224 212 223 214 c 0
 222 217 219 221 216 225 c 1
 210 230 209 233 202 244 c 0
 193 260 193 260 203 264 c 0
 207 266 211 269 213 271 c 0
 214 273 218 275 220 276 c 0
 225 279 236 287 236 288 c 0
 236 289 238 290 239 292 c 1
 241 293 242 295 242 296 c 0
 242 297 244 299 246 301 c 0
 250 304 253 310 253 315 c 0
 253 316 254 318 255 319 c 0
 256 321 256 322 256 323 c 0
 256 324 258 330 260 335 c 0
 264 348 265 361 263 384 c 0
 261 400 260 404 252 415 c 1
 250 420 247 423 247 424 c 0
 247 425 235 434 234 434 c 0
 233 434 230 436 227 438 c 0
 223 440 219 442 217 442 c 0
 214 443 208 445 198 447 c 1
 194 449 192 449 187 448 c 0
 182 447 178 447 176 449 c 0
 172 452 124 454 111 452 c 0
 109 451 99 450 89 450 c 0
121 412 m 0
 124 412 136 411 150 410 c 0
 153 410 160 410 164 409 c 0
 169 408 174 408 175 408 c 0
 180 408 181 408 187 407 c 0
 190 406 194 406 196 406 c 0
 198 405 203 403 207 401 c 0
 211 399 215 397 216 397 c 0
 222 397 238 376 238 368 c 0
 238 366 239 364 239 362 c 0
 241 357 241 331 239 330 c 0
 239 329 236 326 234 324 c 0
 232 321 228 317 225 316 c 0
 223 315 219 312 217 310 c 0
 213 306 207 301 206 301 c 0
 205 301 204 300 202 299 c 0
 201 298 198 297 196 296 c 0
 194 296 190 295 187 294 c 0
 181 291 172 289 165 289 c 0
 162 289 159 289 159 288 c 0
 157 286 140 286 132 287 c 0
 128 288 123 288 122 288 c 0
 120 288 117 288 114 288 c 0
 112 288 109 287 108 287 c 0
 104 285 96 284 91 286 c 1
 88 286 85 287 83 287 c 0
 79 287 72 289 72 291 c 0
 70 296 71 405 72 406 c 0
 74 408 75 408 90 410 c 0
 95 411 100 412 101 412 c 0
 102 413 104 413 106 412 c 0
 107 412 111 412 114 412 c 0
 117 412 120 412 121 412 c 0
EndSplineSet
EndChar
StartChar: uni0053
Encoding: 83 83 20
Width: 243
Flags: W
LayerCount: 2
Fore
SplineSet
91 461 m 1
 86 461 78 458 77 456 c 0
 77 455 76 455 75 455 c 0
 74 455 71 453 68 452 c 1
 66 450 63 448 63 448 c 2
 62 448 53 437 50 433 c 0
 47 429 42 417 42 416 c 0
 42 415 41 413 40 411 c 0
 38 407 36 400 35 394 c 0
 35 391 34 385 33 380 c 0
 31 365 31 363 33 359 c 0
 34 356 35 354 35 353 c 0
 35 351 40 346 47 340 c 0
 50 338 54 335 55 333 c 0
 57 331 60 329 62 328 c 0
 65 327 67 326 67 325 c 0
 68 324 69 324 71 324 c 0
 73 325 74 324 76 323 c 0
 78 321 92 316 99 315 c 0
 100 314 108 313 117 312 c 0
 125 312 133 310 134 310 c 0
 135 309 138 309 140 309 c 0
 145 309 157 305 165 301 c 0
 170 299 174 297 176 297 c 0
 180 297 184 292 185 288 c 0
 186 286 187 284 188 284 c 0
 190 283 191 281 191 281 c 2
 191 280 192 278 195 275 c 0
 202 268 204 252 200 243 c 0
 195 232 172 212 165 212 c 1
 165 212 163 211 161 210 c 0
 159 209 156 209 150 209 c 0
 145 209 135 209 127 208 c 1
 115 208 112 208 109 209 c 0
 107 210 104 211 102 211 c 0
 100 212 97 213 95 214 c 0
 94 215 92 216 92 216 c 2
 91 216 86 218 79 221 c 0
 78 222 76 223 74 223 c 0
 72 224 68 227 65 230 c 0
 62 232 59 235 58 236 c 0
 55 237 48 246 45 254 c 1
 35 272 28 275 22 264 c 0
 19 258 19 257 19 243 c 0
 19 217 20 214 31 202 c 0
 44 186 73 168 85 168 c 0
 87 168 92 167 96 166 c 0
 105 163 110 162 124 161 c 0
 131 161 138 160 140 160 c 0
 143 159 153 162 156 164 c 0
 157 164 160 165 163 166 c 0
 166 167 169 168 170 169 c 2
 170 169 171 170 172 170 c 2
 172 170 175 171 177 173 c 0
 179 175 181 176 182 176 c 2
 182 176 183 177 183 178 c 0
 184 179 186 181 189 183 c 0
 191 185 197 190 201 195 c 0
 206 200 210 204 210 204 c 2
 211 205 212 207 212 209 c 0
 212 211 212 213 214 215 c 0
 215 216 216 219 216 221 c 0
 217 225 222 238 224 239 c 1
 224 239 224 240 224 241 c 0
 224 246 223 251 222 252 c 0
 222 253 222 254 223 255 c 0
 224 257 222 277 220 286 c 0
 219 288 218 292 218 295 c 0
 216 301 209 314 202 322 c 0
 197 329 185 339 183 339 c 1
 183 339 180 341 177 343 c 0
 174 344 169 347 167 347 c 0
 164 348 159 349 155 350 c 0
 147 353 135 355 126 355 c 0
 122 355 117 356 115 357 c 0
 113 357 109 358 107 358 c 0
 106 358 100 359 95 361 c 0
 91 363 86 364 85 364 c 2
 85 364 81 366 77 368 c 0
 74 369 70 371 69 371 c 0
 67 371 62 375 60 378 c 0
 52 386 52 387 54 393 c 0
 63 415 72 422 102 424 c 0
 108 424 114 425 116 426 c 0
 121 427 126 426 131 423 c 0
 132 422 135 421 139 421 c 0
 143 421 145 420 148 418 c 0
 150 417 153 416 155 416 c 0
 156 416 159 415 160 414 c 0
 162 412 164 411 166 411 c 1
 167 410 170 408 172 407 c 0
 181 399 186 400 190 408 c 0
 193 414 195 431 193 435 c 0
 191 438 177 448 170 451 c 0
 166 452 162 454 161 455 c 0
 160 456 157 457 156 457 c 0
 154 457 151 458 149 459 c 0
 137 464 134 464 118 464 c 0
 108 464 101 464 99 463 c 0
 97 463 94 462 91 461 c 1
EndSplineSet
EndChar
StartChar: uni0054
Encoding: 84 84 21
Width: 269
Flags: W
LayerCount: 2
Fore
SplineSet
23 441 m 0
 23 440 22 437 22 435 c 0
 19 427 23 403 27 403 c 0
 33 402 66 403 68 403 c 1
 69 404 71 403 74 403 c 1
 78 401 92 401 99 402 c 0
 109 403 112 399 110 381 c 1
 109 360 109 334 110 315 c 0
 111 297 111 286 111 236 c 0
 111 226 110 214 109 211 c 0
 108 207 107 178 108 175 c 0
 109 172 113 171 123 170 c 0
 138 169 140 169 144 171 c 0
 149 174 150 177 150 200 c 0
 150 211 150 220 150 221 c 0
 152 224 153 296 151 313 c 0
 149 330 149 397 151 400 c 0
 152 400 155 401 159 401 c 0
 163 401 168 401 170 402 c 0
 173 403 174 403 176 402 c 0
 178 400 181 400 189 400 c 0
 199 400 207 400 226 398 c 0
 245 397 249 401 248 422 c 0
 248 440 245 443 226 443 c 0
 224 443 220 443 217 442 c 0
 215 441 213 441 212 441 c 0
 211 441 208 441 206 441 c 0
 203 441 201 442 200 442 c 2
 200 442 195 442 189 442 c 0
 183 441 179 442 177 442 c 1
 175 444 115 444 103 443 c 0
 94 442 92 442 84 442 c 1
 82 443 69 443 56 443 c 0
 43 443 32 444 31 444 c 1
 31 445 29 445 26 444 c 0
 25 444 24 443 23 441 c 0
EndSplineSet
EndChar
StartChar: uni0055
Encoding: 85 85 22
Width: 254
Flags: W
LayerCount: 2
Fore
SplineSet
28 428 m 0
 28 426 29 416 29 406 c 0
 29 395 29 385 29 384 c 0
 29 383 28 375 27 368 c 0
 26 355 26 352 27 338 c 0
 27 329 28 321 28 320 c 0
 28 313 28 311 28 308 c 0
 28 306 28 302 27 299 c 1
 27 295 28 291 28 290 c 0
 29 288 29 286 27 285 c 1
 26 283 26 281 26 277 c 0
 27 273 27 270 25 266 c 1
 25 263 24 259 24 258 c 0
 24 256 23 253 22 252 c 0
 20 249 19 248 21 244 c 0
 21 242 22 238 23 235 c 0
 24 231 26 227 27 226 c 0
 28 224 29 222 29 221 c 0
 29 220 30 215 32 210 c 0
 35 201 42 192 49 189 c 0
 51 188 54 185 57 182 c 0
 65 176 70 174 75 174 c 0
 78 174 80 173 81 173 c 0
 82 172 83 171 84 171 c 0
 85 171 89 170 93 170 c 0
 101 168 129 168 133 169 c 0
 134 170 136 170 138 170 c 0
 140 171 144 172 148 172 c 1
 151 173 156 174 159 174 c 0
 162 174 165 175 167 176 c 0
 169 177 172 178 174 179 c 0
 181 180 191 185 192 187 c 0
 192 188 194 190 196 192 c 0
 201 195 209 205 212 211 c 0
 216 218 219 228 220 232 c 0
 220 234 221 239 222 244 c 0
 223 248 224 254 225 258 c 0
 225 262 226 267 226 269 c 0
 227 271 227 295 227 322 c 0
 228 350 228 372 229 375 c 0
 229 377 230 384 230 389 c 0
 231 395 231 400 231 400 c 2
 232 400 232 404 232 409 c 0
 232 413 233 418 233 419 c 0
 234 420 234 425 234 429 c 0
 235 437 234 439 229 439 c 0
 217 441 207 442 206 441 c 0
 205 441 203 440 202 440 c 0
 197 439 195 432 194 417 c 0
 193 404 192 398 189 378 c 0
 186 355 186 350 186 342 c 0
 187 317 185 280 184 271 c 0
 183 267 183 262 182 258 c 0
 182 254 181 251 181 250 c 0
 180 248 180 246 180 245 c 0
 179 242 175 229 174 223 c 0
 173 221 172 218 171 217 c 0
 170 215 169 213 169 212 c 0
 168 210 166 207 163 205 c 0
 154 196 152 195 146 195 c 1
 143 194 140 194 139 193 c 0
 137 191 134 190 123 189 c 0
 119 188 113 188 111 187 c 1
 106 187 100 188 97 191 c 0
 96 191 94 192 94 192 c 2
 93 192 90 194 88 196 c 0
 86 198 83 200 83 200 c 2
 82 200 80 204 78 209 c 0
 75 214 72 220 70 223 c 0
 67 229 65 243 66 249 c 0
 67 251 67 275 67 302 c 0
 67 363 67 355 67 401 c 0
 68 448 69 445 52 445 c 1
 46 446 40 445 38 445 c 0
 30 444 26 435 28 428 c 0
EndSplineSet
EndChar

StartChar: uni0056
Encoding: 86 86 23
Width: 316
Flags: W
LayerCount: 2
Fore
SplineSet
25 441 m 0
 24 439 24 439 27 426 c 0
 27 424 30 418 32 413 c 0
 35 408 37 402 37 401 c 0
 38 400 40 396 41 393 c 0
 43 389 46 383 47 379 c 0
 48 375 50 370 50 369 c 0
 51 368 53 363 54 360 c 0
 56 350 58 346 60 344 c 0
 63 340 71 317 70 316 c 0
 70 315 71 313 72 309 c 1
 74 306 75 303 75 303 c 2
 75 302 76 301 77 300 c 0
 78 299 79 296 79 295 c 0
 81 285 82 281 83 277 c 0
 84 275 85 270 86 267 c 1
 86 263 87 260 88 259 c 0
 90 257 94 244 96 237 c 0
 97 233 98 230 98 229 c 0
 99 227 100 225 100 223 c 0
 101 221 101 219 102 219 c 1
 102 218 103 215 103 212 c 0
 103 209 105 205 106 202 c 0
 108 199 109 195 109 193 c 0
 110 185 112 179 115 176 c 0
 116 175 118 171 120 169 c 1
 122 162 126 160 136 160 c 0
 141 160 142 159 144 158 c 1
 146 155 147 155 149 158 c 0
 150 160 151 160 155 160 c 0
 160 160 160 160 167 168 c 0
 171 172 176 178 177 181 c 0
 179 184 182 187 182 188 c 0
 183 189 186 195 189 201 c 0
 192 207 195 212 196 213 c 0
 196 214 198 217 199 221 c 1
 201 224 203 229 205 232 c 0
 207 235 209 240 210 242 c 0
 213 248 218 259 228 277 c 1
 234 290 237 297 242 309 c 1
 243 314 245 317 252 333 c 0
 257 344 261 353 264 361 c 1
 264 364 267 370 269 374 c 0
 270 378 272 382 273 384 c 0
 273 385 275 388 276 391 c 0
 278 394 279 397 279 398 c 0
 279 399 280 402 282 406 c 0
 284 410 286 415 286 416 c 0
 287 418 288 422 290 424 c 0
 294 430 294 438 290 441 c 0
 284 444 269 446 263 444 c 0
 259 443 254 436 254 432 c 0
 254 430 250 421 248 419 c 0
 247 417 246 415 245 413 c 0
 244 410 243 406 241 404 c 1
 240 401 239 399 239 398 c 0
 239 397 238 394 236 392 c 0
 234 389 233 387 233 386 c 0
 233 385 232 383 226 369 c 0
 224 364 221 357 219 353 c 0
 217 348 215 343 213 341 c 0
 212 339 211 336 210 334 c 0
 210 332 209 329 208 328 c 0
 205 324 202 317 201 313 c 0
 200 310 198 306 197 303 c 0
 190 288 187 281 187 280 c 2
 187 280 186 278 185 276 c 1
 183 275 181 272 180 269 c 0
 179 267 177 265 177 264 c 1
 176 264 176 263 176 262 c 2
 176 262 174 256 171 251 c 0
 168 245 166 239 165 237 c 0
 163 231 161 227 159 222 c 1
 157 220 155 214 153 211 c 0
 147 199 145 200 141 216 c 0
 140 221 138 230 136 235 c 0
 135 239 133 246 132 250 c 0
 131 253 129 258 128 261 c 0
 126 265 124 270 123 274 c 0
 122 278 121 284 119 288 c 0
 118 291 116 297 116 301 c 0
 115 306 113 311 112 313 c 0
 110 316 106 327 106 329 c 0
 106 330 105 333 104 336 c 0
 100 343 97 350 95 356 c 1
 92 361 90 367 88 374 c 0
 87 375 86 377 86 379 c 1
 85 380 83 386 80 392 c 0
 76 403 74 408 70 415 c 0
 67 420 67 421 67 423 c 0
 67 425 65 429 64 434 c 1
 62 438 60 442 59 444 c 0
 58 448 53 450 46 449 c 0
 35 448 27 445 25 441 c 0
EndSplineSet
EndChar
StartChar: uni0057
Encoding: 87 87 24
Width: 308
Flags: W
LayerCount: 2
Fore
SplineSet
257 430 m 0
 256 426 254 420 254 417 c 0
 253 414 252 409 251 405 c 0
 251 401 249 395 247 391 c 1
 246 386 244 380 243 377 c 0
 242 374 241 367 240 362 c 0
 239 356 237 348 236 343 c 0
 233 333 229 313 227 300 c 0
 226 296 226 292 225 290 c 0
 224 287 223 280 221 273 c 1
 220 265 218 257 217 255 c 0
 216 253 215 248 214 245 c 0
 214 242 213 238 212 237 c 1
 212 235 211 233 211 232 c 0
 211 227 209 231 206 242 c 0
 204 249 202 255 202 256 c 0
 201 258 199 264 196 271 c 0
 194 277 191 284 190 287 c 0
 189 289 188 292 187 293 c 1
 187 295 186 297 186 297 c 2
 186 298 185 300 183 302 c 0
 181 304 180 307 179 309 c 0
 178 313 176 318 173 320 c 0
 171 322 170 323 163 346 c 1
 157 361 157 361 152 361 c 0
 142 361 135 355 134 344 c 0
 134 340 133 333 130 326 c 0
 128 319 125 310 124 306 c 0
 122 297 120 289 118 282 c 0
 117 280 116 274 116 270 c 0
 115 265 114 260 113 258 c 0
 112 252 110 246 109 239 c 0
 108 235 107 229 105 224 c 0
 104 220 103 215 103 214 c 0
 103 211 100 205 99 205 c 0
 98 205 98 206 98 207 c 2
 98 207 97 213 95 219 c 0
 93 225 91 234 90 239 c 0
 89 244 87 251 86 255 c 0
 85 258 84 265 84 270 c 0
 84 274 82 283 81 289 c 0
 79 295 78 302 77 306 c 0
 77 309 75 315 74 320 c 0
 71 338 69 347 68 353 c 0
 68 357 67 363 66 367 c 0
 62 382 60 390 57 406 c 0
 57 410 55 417 54 420 c 0
 53 424 51 430 51 435 c 0
 49 447 48 448 39 448 c 0
 27 447 22 442 24 433 c 0
 24 430 25 425 26 422 c 0
 27 418 28 415 28 413 c 1
 29 412 30 407 30 402 c 0
 31 395 34 381 37 368 c 0
 39 358 41 350 42 343 c 0
 43 335 45 323 48 311 c 0
 49 308 49 304 50 301 c 0
 51 297 52 291 52 288 c 0
 54 280 56 267 58 255 c 0
 58 252 59 248 60 247 c 1
 60 245 61 243 61 241 c 0
 61 240 62 237 62 235 c 0
 63 233 65 225 66 217 c 0
 68 209 70 198 71 192 c 0
 73 186 74 180 74 179 c 0
 74 174 79 167 83 164 c 0
 94 158 115 166 117 177 c 0
 118 178 119 180 119 181 c 0
 122 185 133 216 134 225 c 0
 135 227 136 232 136 235 c 1
 137 237 138 242 139 245 c 0
 139 248 141 254 141 258 c 0
 144 272 147 287 147 289 c 0
 147 292 150 302 152 303 c 0
 153 303 155 299 158 290 c 0
 160 286 162 280 163 278 c 0
 165 276 167 269 168 264 c 0
 170 259 172 254 172 253 c 0
 172 252 174 247 176 242 c 0
 177 237 179 232 180 231 c 0
 181 229 182 225 183 222 c 0
 184 219 185 214 186 210 c 0
 187 206 188 201 189 198 c 0
 194 173 201 163 211 165 c 0
 213 166 217 166 219 166 c 0
 220 166 222 167 223 168 c 0
 225 170 229 185 230 193 c 0
 231 195 232 200 232 204 c 1
 237 223 241 239 245 254 c 0
 250 274 251 278 256 306 c 0
 256 308 257 313 258 317 c 0
 259 320 260 325 261 329 c 0
 263 340 264 345 266 354 c 0
 268 359 269 366 269 368 c 0
 270 370 271 377 273 384 c 0
 274 390 277 399 278 405 c 0
 279 410 281 418 282 423 c 0
 285 433 286 443 283 445 c 0
 279 449 265 450 262 447 c 0
 260 445 259 441 257 430 c 0
EndSplineSet
EndChar
StartChar: uni0058
Encoding: 88 88 25
Width: 327
Flags: W
LayerCount: 2
Fore
SplineSet
78 449 m 0
 77 446 77 445 80 440 c 0
 85 431 88 426 90 424 c 0
 91 423 91 422 91 421 c 2
 91 421 93 419 94 418 c 0
 96 417 98 414 99 412 c 0
 99 410 100 408 101 407 c 0
 102 405 103 403 103 402 c 0
 103 401 105 397 107 395 c 0
 109 392 110 389 110 389 c 2
 110 388 112 386 113 384 c 0
 115 382 116 379 116 378 c 0
 116 377 121 367 127 359 c 0
 128 356 130 353 131 350 c 1
 133 348 134 345 135 344 c 0
 137 343 137 342 137 342 c 2
 137 341 139 337 142 332 c 0
 144 327 146 321 146 319 c 0
 146 316 130 288 120 276 c 0
 112 266 110 263 108 259 c 0
 104 253 102 250 99 248 c 0
 94 243 78 224 77 220 c 0
 76 218 74 216 72 215 c 0
 67 210 64 206 62 203 c 1
 62 201 59 198 57 195 c 0
 53 191 53 191 55 187 c 0
 58 182 58 181 63 180 c 0
 65 179 67 178 68 177 c 0
 69 176 72 176 75 178 c 0
 76 179 79 179 83 179 c 0
 92 178 96 180 100 188 c 0
 101 190 103 193 105 196 c 0
 107 198 109 202 111 204 c 1
 112 207 117 212 121 217 c 0
 125 221 129 226 130 227 c 0
 132 231 137 236 142 241 c 0
 146 245 153 255 155 260 c 1
 157 262 159 264 160 265 c 0
 161 266 162 268 163 269 c 0
 165 273 169 278 171 278 c 0
 173 278 178 272 181 265 c 0
 182 264 184 261 185 260 c 0
 186 259 188 257 188 255 c 0
 188 254 189 252 190 251 c 0
 191 250 192 248 193 245 c 1
 195 243 197 240 198 239 c 0
 199 239 200 237 200 236 c 0
 200 235 203 229 207 224 c 0
 210 219 213 214 213 213 c 2
 213 213 214 212 215 211 c 0
 216 210 216 209 216 208 c 0
 216 207 218 205 219 203 c 0
 222 199 230 182 230 180 c 0
 230 179 233 174 236 168 c 0
 244 152 250 150 262 157 c 0
 265 158 268 159 269 159 c 0
 270 159 273 160 274 162 c 1
 276 163 278 165 280 166 c 0
 286 168 285 175 280 180 c 0
 278 181 275 186 273 191 c 0
 270 196 268 201 268 201 c 2
 266 203 256 222 256 223 c 0
 256 224 256 225 246 240 c 0
 243 246 238 254 235 259 c 0
 233 264 228 271 225 275 c 0
 218 283 216 285 216 286 c 0
 216 287 215 289 214 291 c 1
 212 292 211 295 210 297 c 0
 210 298 208 300 206 301 c 0
 205 302 203 304 203 307 c 1
 202 309 201 311 200 312 c 0
 195 317 197 321 205 328 c 0
 206 329 209 333 212 337 c 0
 215 341 218 345 218 346 c 1
 219 346 222 349 226 352 c 0
 229 355 233 359 234 360 c 0
 243 374 252 385 258 392 c 0
 262 396 265 400 265 400 c 2
 265 401 266 402 267 404 c 0
 268 405 269 407 269 408 c 0
 269 409 272 412 274 414 c 0
 277 417 283 423 288 429 c 0
 293 434 297 439 297 439 c 1
 299 439 302 446 302 448 c 0
 302 455 290 459 275 457 c 0
 269 457 271 458 243 429 c 0
 239 425 234 420 233 418 c 0
 231 415 229 413 229 413 c 2
 228 412 226 408 223 404 c 0
 220 400 216 395 213 392 c 0
 211 390 208 387 208 386 c 0
 206 381 194 366 182 354 c 0
 179 351 178 352 174 359 c 0
 172 363 170 367 168 369 c 0
 167 370 166 372 166 373 c 0
 166 375 157 392 154 395 c 0
 153 396 151 398 151 399 c 0
 150 401 148 404 147 405 c 0
 144 410 136 421 136 422 c 2
 136 422 135 424 133 427 c 1
 130 429 127 433 125 436 c 1
 124 440 121 443 120 444 c 0
 119 445 117 449 116 453 c 0
 112 462 110 463 100 462 c 0
 93 462 80 453 78 449 c 0
25 434 m 0
 25 436 25 438 25 439 c 0
 25 440 25 439 25 437 c 0
 25 434 25 433 25 434 c 0
EndSplineSet
EndChar

StartChar: uni0059
Encoding: 89 89 26
Width: 309
Flags: W
LayerCount: 2
Fore
SplineSet
32 439 m 0
 36 435 40 430 41 428 c 0
 43 425 45 422 46 421 c 0
 47 420 48 418 48 418 c 2
 48 417 49 415 50 414 c 0
 52 413 54 410 56 408 c 1
 57 405 61 401 64 398 c 0
 67 395 69 392 70 390 c 0
 70 388 71 387 71 386 c 0
 72 385 73 384 73 383 c 0
 73 382 80 375 84 372 c 1
 86 372 87 370 87 370 c 2
 87 369 88 367 90 365 c 0
 92 364 94 362 94 361 c 0
 94 358 99 350 102 348 c 0
 103 347 105 344 107 341 c 0
 109 339 111 337 111 336 c 1
 112 336 113 334 114 332 c 0
 115 330 116 328 117 327 c 1
 119 327 121 324 123 321 c 0
 125 318 130 312 134 308 c 0
 142 300 142 297 142 218 c 0
 142 204 141 182 140 180 c 0
 139 178 141 171 144 168 c 0
 145 166 146 166 154 166 c 0
 175 168 181 169 182 176 c 0
 183 182 184 223 183 224 c 1
 183 224 183 225 184 226 c 0
 185 228 185 230 183 236 c 1
 183 240 182 246 182 250 c 0
 182 308 182 305 187 311 c 0
 194 318 202 328 202 329 c 0
 202 331 206 336 213 344 c 0
 215 347 219 352 221 356 c 0
 223 360 227 366 231 370 c 0
 238 378 251 394 251 395 c 0
 251 396 258 407 264 414 c 0
 287 441 286 438 286 449 c 0
 286 459 286 459 269 459 c 1
 256 460 253 458 250 453 c 0
 249 451 246 447 243 443 c 1
 239 440 236 435 235 434 c 0
 234 432 232 429 229 426 c 0
 221 418 213 408 211 404 c 0
 210 403 207 398 204 394 c 0
 201 391 197 387 196 385 c 0
 196 384 194 381 192 380 c 0
 189 378 184 371 180 365 c 0
 172 351 162 337 161 337 c 0
 158 337 144 353 140 360 c 0
 137 367 129 377 119 387 c 0
 115 391 110 397 107 401 c 0
 105 405 100 411 97 414 c 0
 87 426 70 449 66 456 c 0
 61 466 55 468 40 464 c 0
 21 459 19 453 32 439 c 0
EndSplineSet
EndChar

StartChar: uni005A
Encoding: 90 90 27
Width: 313
Flags: W
LayerCount: 2
Fore
SplineSet
123 467 m 0
 118 467 112 467 109 467 c 0
 107 467 105 467 104 468 c 0
 102 470 95 469 93 468 c 0
 91 466 88 452 87 442 c 0
 87 432 87 432 90 429 c 0
 93 425 93 425 103 425 c 0
 124 425 146 425 150 426 c 0
 154 426 157 426 161 425 c 0
 164 424 170 423 173 423 c 0
 177 423 180 423 180 422 c 0
 183 420 204 419 209 422 c 1
 213 423 215 423 218 420 c 0
 219 418 216 411 210 404 c 0
 208 402 207 399 206 397 c 1
 206 394 201 385 194 375 c 0
 192 371 189 366 188 363 c 0
 186 359 184 355 182 354 c 1
 181 352 180 349 179 348 c 0
 178 347 177 344 176 343 c 0
 175 342 173 339 172 337 c 0
 171 335 169 332 168 330 c 0
 166 328 165 326 165 326 c 1
 165 326 163 323 161 321 c 0
 159 319 158 316 158 316 c 1
 159 315 158 314 156 313 c 0
 155 312 153 310 153 309 c 0
 152 307 149 303 144 297 c 0
 143 295 140 291 138 288 c 0
 133 279 128 273 116 261 c 0
 102 247 90 232 87 226 c 0
 87 224 85 221 83 220 c 0
 81 218 79 215 77 212 c 0
 76 209 73 205 71 203 c 0
 59 189 60 178 73 176 c 0
 76 175 80 175 80 174 c 0
 82 173 90 171 98 170 c 0
 102 170 104 170 108 172 c 0
 113 174 115 174 124 174 c 1
 129 173 137 173 141 174 c 1
 146 174 152 174 156 174 c 0
 169 172 195 171 206 172 c 0
 212 172 223 171 228 170 c 0
 234 168 259 169 261 171 c 0
 262 172 263 172 265 171 c 0
 268 168 273 169 275 171 c 0
 278 175 279 204 276 209 c 0
 274 213 272 215 268 214 c 0
 259 211 256 210 255 211 c 0
 254 212 247 212 246 211 c 0
 245 210 244 210 243 211 c 0
 239 214 232 214 219 213 c 0
 201 211 173 212 161 214 c 0
 159 215 151 215 144 214 c 1
 129 214 128 214 133 221 c 0
 135 223 138 227 139 230 c 0
 140 232 141 234 142 235 c 0
 143 236 148 241 153 247 c 0
 158 253 164 260 167 263 c 0
 170 266 173 270 175 272 c 0
 176 274 180 279 184 284 c 0
 194 297 198 303 206 316 c 0
 210 322 214 329 215 330 c 0
 216 331 218 335 220 338 c 0
 221 341 223 344 224 345 c 0
 224 346 226 348 226 350 c 1
 227 351 228 353 229 354 c 0
 230 355 231 356 232 357 c 1
 232 359 233 360 234 361 c 0
 234 362 237 368 241 375 c 0
 244 382 248 388 249 390 c 0
 250 392 252 395 253 397 c 0
 255 402 261 410 264 413 c 0
 265 414 266 415 266 416 c 0
 266 417 267 418 275 428 c 0
 277 431 279 434 280 435 c 0
 281 436 283 440 285 443 c 0
 290 449 290 450 290 455 c 0
 290 458 283 462 277 462 c 0
 275 462 271 463 269 464 c 0
 258 469 250 470 236 469 c 0
 234 468 228 468 224 468 c 0
 220 468 214 467 212 467 c 0
 208 466 205 466 200 467 c 0
 196 468 188 468 181 468 c 0
 173 468 169 469 167 470 c 0
 166 470 165 471 164 471 c 2
 164 471 161 470 158 470 c 0
 137 466 132 466 123 467 c 0
26 444 m 0
 30 448 30 454 26 456 c 0
 24 457 24 457 24 449 c 0
 24 441 24 441 26 444 c 0
EndSplineSet
EndChar

StartChar: .notdef
Encoding: 65536 -1 0
Width: 500
Flags: MW
HStem: 0 50<100 400 100 450> 483 50<100 400 100 100>
VStem: 50 50<50 483 50 533> 400 50<50 483 483 483>
LayerCount: 2
Fore
SplineSet
50 0 m 2
 50 533 l 1
 450 533 l 1
 450 0 l 1
 450 9.88131291682e-324 50 9.88131291682e-324 50 0 c 2
100 50 m 2
 400 50 l 1
 400 483 l 1
 100 483 l 1
 100 50 l 2
EndSplineSet
EndChar
